<?xml version="1.0" encoding="UTF-8"?>
<svg id="Layer_2" data-name="Layer 2" xmlns="http://www.w3.org/2000/svg" viewBox="0 0 27.21 29.4">
  <defs>
    <style>
      .cls-1 {
        font-family: Inter28pt-Regular, 'Inter 28pt';
        font-size: 14.18px;
      }

      .cls-2 {
        fill: none;
        stroke: #0d0d0d;
        stroke-linecap: round;
        stroke-linejoin: round;
        stroke-width: 1.5px;
      }
    </style>
  </defs>
  <g id="Layer_1-2" data-name="Layer 1">
    <path class="cls-2" d="M13.61,28.65c7.5,0,12.86-2.66,12.86-8.57,0-6.43-3.21-10.71-9.64-13.93l2.53-3.26c.13-.21.2-.46.2-.71,0-.25-.06-.5-.18-.71-.12-.22-.3-.4-.51-.53-.21-.13-.46-.2-.71-.2h-9.09c-.25,0-.49.07-.71.2-.21.13-.39.31-.51.53-.12.22-.18.46-.18.71,0,.25.07.49.2.71l2.53,3.28C3.96,9.41.75,13.69.75,20.12c0,5.87,5.36,8.53,12.86,8.53Z"/>
    <text class="cls-1" transform="translate(10.66 22)"><tspan x="0" y="0">₹</tspan></text>
  </g>
</svg>