<svg width="50" height="50" viewBox="0 0 50 50" fill="none" xmlns="http://www.w3.org/2000/svg">
<rect width="50" height="50" rx="25" fill="white"/>
<path d="M24.0053 38.1726C24.0053 38.1726 23.9093 38.2446 23.8053 38.2686H11.3891C11.3891 38.2686 11.3331 38.2846 11.293 38.2686C11.229 38.2446 11.189 38.1646 11.197 38.0685V29.2924C11.197 28.2043 11.197 24.4442 11.197 23.3162C11.197 23.1722 11.085 23.0602 10.941 23.0602C9.81302 23.0362 8.69299 23.0202 7.56497 22.9962C7.30896 22.9962 7.21296 22.6682 7.42096 22.5242C10.349 20.5482 13.2691 18.5721 16.1972 16.5881C17.6852 15.5721 19.1732 14.556 20.6693 13.54C21.7173 12.948 22.7733 12.356 23.8213 11.756C23.9973 11.66 24.2133 11.78 24.2133 11.98V23.2122C24.2133 23.3082 24.1573 23.3962 24.0773 23.4442C23.7973 23.6042 23.3733 23.7882 22.8293 23.8602C21.9573 23.9722 21.2693 23.7082 20.9013 23.5402C20.8133 23.5002 20.7573 23.4122 20.7573 23.3082C20.7253 21.6362 20.7013 19.9721 20.6693 18.3001C20.6693 18.0921 20.4373 17.9721 20.2612 18.0841L14.9011 21.6282C14.8291 21.6762 14.7811 21.7562 14.7811 21.8522C14.7971 23.1882 14.8131 24.5322 14.8371 25.8683C14.8371 26.0123 14.9571 26.1243 15.0931 26.1243H23.6213C23.7333 26.1243 23.8373 26.1963 23.8693 26.3083C23.9893 26.6923 24.1173 27.2363 24.1013 27.9003C24.0933 28.4683 23.9813 28.9483 23.8693 29.3004C23.8373 29.4124 23.7333 29.4844 23.6213 29.4844C20.8453 29.5164 18.0692 29.5484 15.2851 29.5804C15.1411 29.5804 15.0291 29.7004 15.0291 29.8444V34.1565C15.0291 34.3005 15.1491 34.4205 15.2931 34.4205C17.0612 34.4045 18.8372 34.3885 20.6053 34.3645C20.7413 34.3645 20.8613 34.2525 20.8613 34.1165C20.8853 33.4684 20.9093 32.8284 20.9333 32.1804C20.9333 32.0524 21.0373 31.9404 21.1653 31.9324C21.6053 31.8844 21.7893 31.9004 22.6213 31.8604C23.4693 31.8204 23.7173 31.7004 23.9253 31.7724C23.9893 31.7964 24.0293 31.8204 24.0693 31.8524C24.2533 32.0204 24.2213 32.3004 24.2053 32.7484C24.2053 32.9804 24.2053 33.2044 24.2053 33.4364C24.2053 33.7965 24.2053 34.1565 24.2053 34.5245V36.3005C24.2053 37.4445 24.3093 37.9325 24.0053 38.1726Z" fill="#454545"/>
<path d="M24.9889 38.0685C28.589 38.1325 32.1891 38.1965 35.7892 38.2685C36.0852 38.2685 36.7012 38.2045 37.2132 37.7725C37.4132 37.6125 37.7332 37.2765 38.0052 36.2925C38.1332 35.8285 38.1972 35.3965 38.2052 32.8444C38.2052 32.7244 38.2052 32.7724 38.2052 30.7724V29.5884C38.2452 25.1483 38.3652 23.6842 38.4932 23.5482L38.7332 23.3082C39.9733 23.2842 41.2133 23.2602 42.4533 23.2282C42.6933 23.2282 42.7813 22.9082 42.5813 22.7802C40.1333 21.1562 37.6852 19.5321 35.2372 17.9081C35.0772 17.8041 34.8612 17.9161 34.8612 18.1161C34.8772 23.3482 34.9012 28.5883 34.9172 33.8205C34.9172 33.9485 34.8212 34.0605 34.6932 34.0685L33.6771 34.1405C33.5331 34.1485 33.4211 34.0365 33.4131 33.8925C33.4051 28.3243 33.3971 22.7482 33.3811 17.1801C33.3811 17.1081 33.3491 17.0361 33.2931 16.9961C32.4371 16.2681 31.5811 15.548 30.7171 14.82C30.5571 14.684 30.3171 14.796 30.3171 15.004C30.2611 21.3242 30.2131 27.6443 30.1571 33.9645C30.1571 34.1005 30.0371 34.2125 29.9011 34.2045C29.525 34.1885 29.149 34.1645 28.781 34.1485C28.653 34.1485 28.549 34.0365 28.549 33.9005C28.581 27.2363 28.613 20.5722 28.645 13.908C28.645 13.788 28.549 13.708 28.549 13.708C28.173 13.02 27.661 12.788 25.981 11.788C25.573 11.548 25.557 11.532 25.493 11.54C24.8769 11.676 24.9009 13.996 24.9969 19.0361C25.0609 22.3882 25.0769 22.6282 25.0929 23.8682C25.1649 28.1243 25.1249 31.4364 25.0929 33.4284C25.0689 35.2765 25.0289 36.8605 24.9969 38.0605L24.9889 38.0685Z" fill="#FFCE00"/>
</svg>
