<svg width="250" height="80" viewBox="0 0 250 80" fill="none" xmlns="http://www.w3.org/2000/svg">
<g clip-path="url(#clip0_504_4214)">
<path d="M41.647 68.7803C41.647 68.7803 41.4625 68.9121 41.278 68.9648H17.7124C17.7124 68.9648 17.6069 68.9912 17.5278 68.9648C17.396 68.9121 17.317 68.7539 17.3433 68.5958V51.9628C17.3433 49.9067 17.3433 42.7633 17.3433 40.6281C17.3433 40.3645 17.1324 40.1536 16.8689 40.1536C14.7337 40.1009 12.5986 40.0746 10.4634 40.0218C9.98896 40.0218 9.80444 39.3892 10.1998 39.1256C15.7354 35.3825 21.2973 31.6131 26.8328 27.87C29.6533 25.9457 32.4738 24.0215 35.3207 22.0972C37.324 20.9637 39.301 19.8566 41.3043 18.7232C41.647 18.5386 42.0424 18.7759 42.0424 19.1449V40.4436C42.0424 40.6281 41.937 40.7863 41.7788 40.8653C41.2516 41.1553 40.4345 41.5243 39.4064 41.6561C37.7721 41.867 36.4541 41.3662 35.7424 41.0499C35.5843 40.9708 35.4788 40.8126 35.4525 40.6018C35.3997 37.4386 35.347 34.2754 35.2943 31.1122C35.2943 30.7168 34.8462 30.506 34.5299 30.7168L24.355 37.4386C24.2232 37.5177 24.1178 37.6758 24.1441 37.8603C24.1705 40.3909 24.2232 42.9478 24.2496 45.4783C24.2496 45.7419 24.4868 45.9528 24.7504 45.9528H40.9353C41.1462 45.9528 41.3307 46.0846 41.4098 46.2955C41.647 47.0335 41.8842 48.0616 41.8579 49.3005C41.8579 50.3812 41.6206 51.2774 41.4098 51.9364C41.3571 52.1473 41.1462 52.2791 40.9353 52.2791C35.6633 52.3318 30.3914 52.3846 25.1458 52.4636C24.8822 52.4636 24.645 52.7009 24.645 52.9645V61.136C24.645 61.3996 24.8822 61.6368 25.1458 61.6368C28.4935 61.6105 31.8675 61.5577 35.2152 61.5314C35.4788 61.5314 35.6897 61.3205 35.7161 61.0569C35.7688 59.8444 35.7951 58.6055 35.8479 57.3929C35.8479 57.1557 36.0324 56.9448 36.296 56.9184C37.1395 56.813 37.4822 56.8657 39.0638 56.7866C40.6717 56.7076 41.1462 56.4967 41.5416 56.6285C41.647 56.6812 41.7261 56.7076 41.8052 56.7866C42.1478 57.1029 42.0951 57.6301 42.0688 58.4737C42.0688 58.8954 42.0688 59.3435 42.0688 59.7916C42.0688 60.477 42.0688 61.1623 42.0688 61.8477V65.2217C42.0688 67.3832 42.2533 68.3058 41.6997 68.7803H41.647Z" fill="#454545"/>
<path d="M43.5282 68.5968C50.3553 68.7286 57.1825 68.8341 64.0097 68.9659C64.5896 68.9659 65.7231 68.8341 66.7247 68.0433C67.0938 67.727 67.7264 67.0943 68.2273 65.2492C68.4645 64.3529 68.5963 63.5621 68.5963 58.7119C68.5963 58.4747 68.5963 58.5801 68.5963 54.7843V52.5438C68.6754 44.135 68.8862 41.3409 69.1498 41.1036L69.598 40.6555C71.944 40.6028 74.29 40.5501 76.636 40.4974C77.0841 40.4974 77.2686 39.8911 76.8733 39.6539C72.2339 36.5698 67.5946 33.4857 62.9289 30.4016C62.6126 30.1907 62.2172 30.4016 62.2172 30.797C62.2436 40.7346 62.2963 50.6459 62.3227 60.5835C62.3227 60.8207 62.1382 61.0316 61.9009 61.058L59.9767 61.1898C59.7131 61.1898 59.4758 61.0052 59.4758 60.7153C59.4758 50.145 59.4495 39.5748 59.4231 29.0309C59.4231 28.8991 59.3704 28.7673 59.2649 28.6882C57.6306 27.3175 56.0227 25.9468 54.3884 24.5761C54.0984 24.3125 53.624 24.5234 53.624 24.9188C53.5185 36.9124 53.4131 48.8798 53.334 60.8734C53.334 61.137 53.1231 61.3479 52.8595 61.3216C52.1478 61.2952 51.4361 61.2425 50.7244 61.2161C50.4871 61.2161 50.2763 61.0052 50.2763 60.7416C50.329 48.1153 50.4081 35.4627 50.4608 22.8363C50.4608 22.5991 50.2763 22.4673 50.2763 22.4673C49.5646 21.1757 48.5892 20.7276 45.3997 18.8297C44.6353 18.3815 44.5826 18.3288 44.4771 18.3552C43.3173 18.6188 43.37 23.0209 43.5545 32.5631C43.6863 38.9158 43.7127 39.3903 43.7391 41.7363C43.8709 49.8024 43.7918 56.076 43.7391 59.8718C43.6863 63.3776 43.6073 66.3826 43.5545 68.6496L43.5282 68.5968Z" fill="#FFCE00"/>
<path d="M84.2051 42.3539L84.2198 21.3103L88.8995 21.3135L88.8848 42.3572L84.2051 42.3539ZM87.782 42.3564L87.7848 38.3027L99.3201 38.3108L99.3172 42.3645L87.782 42.3564ZM87.7881 33.5634L87.7908 29.6587L98.2829 29.666L98.2801 33.5707L87.7881 33.5634ZM87.7939 25.3367L87.7967 21.3128L99.1829 21.3207L99.1801 25.3447L87.7939 25.3367ZM100.964 42.3656L109.324 21.3278L113.557 21.3308L121.799 42.3802L116.851 42.3767L110.544 24.9055L112.243 24.9067L105.822 42.369L100.964 42.3656ZM105.706 38.5537L105.708 34.7384L117.184 34.7464L117.181 38.5617L105.706 38.5537ZM129.937 42.7137C128.208 42.7125 126.718 42.4333 125.466 41.876C124.235 41.2989 123.102 40.4337 122.07 39.2805L125.112 36.2721C125.787 37.0475 126.532 37.6541 127.347 38.0919C128.181 38.5097 129.145 38.7191 130.237 38.7198C131.231 38.7205 131.996 38.5422 132.533 38.1849C133.09 37.8276 133.368 37.331 133.369 36.6951C133.369 36.1189 133.191 35.6518 132.833 35.2938C132.476 34.9359 131.999 34.6276 131.403 34.3688C130.827 34.1101 130.181 33.8613 129.466 33.6223C128.771 33.3834 128.075 33.1146 127.38 32.8161C126.685 32.4976 126.039 32.1097 125.443 31.6522C124.868 31.1749 124.401 30.5884 124.044 29.8927C123.687 29.177 123.508 28.2827 123.509 27.2097C123.51 25.918 123.819 24.8055 124.435 23.8719C125.072 22.9384 125.947 22.2336 127.06 21.7575C128.173 21.2615 129.455 21.014 130.906 21.015C132.376 21.016 133.717 21.2753 134.929 21.7928C136.161 22.3103 137.174 23.0164 137.968 23.9112L134.925 26.9196C134.29 26.2634 133.645 25.7761 132.989 25.4577C132.353 25.1393 131.628 24.9798 130.813 24.9792C129.999 24.9787 129.353 25.1372 128.876 25.4548C128.399 25.7525 128.16 26.1895 128.159 26.7658C128.159 27.3023 128.338 27.7396 128.695 28.0777C129.052 28.3959 129.519 28.6744 130.095 28.9133C130.691 29.1521 131.337 29.391 132.032 29.63C132.747 29.8689 133.453 30.1476 134.148 30.466C134.843 30.7845 135.479 31.1923 136.055 31.6895C136.651 32.1668 137.127 32.7831 137.484 33.5385C137.841 34.274 138.02 35.1882 138.019 36.2811C138.017 38.2881 137.301 39.8674 135.869 41.0189C134.438 42.1506 132.46 42.7155 129.937 42.7137ZM145.366 42.3966L145.381 21.651L150.06 21.6543L150.046 42.3999L145.366 42.3966ZM138.791 25.4319L138.793 21.3484L156.648 21.3608L156.645 25.4444L138.791 25.4319ZM169.703 42.4136L162.951 21.3652L167.601 21.3685L172.538 37.5571L170.72 37.5558L175.56 21.374L179.226 21.3766L184.043 37.5651L182.255 37.5639L187.184 21.3822L191.804 21.3854L185.023 42.4243L181.357 42.4218L176.51 26.2332L178.239 26.2344L173.369 42.4162L169.703 42.4136ZM190.413 42.4281L198.774 21.3902L203.007 21.3932L211.248 42.4426L206.301 42.4392L199.994 24.9679L201.693 24.9691L195.272 42.4315L190.413 42.4281ZM195.155 38.6161L195.158 34.8008L206.634 34.8088L206.631 38.6241L195.155 38.6161ZM217.3 34.6076L209.202 21.3975L214.626 21.4013L220.849 32.0765L217.361 32.0741L223.598 21.4076L228.904 21.4113L220.728 34.61L217.3 34.6076ZM216.728 42.4465L216.735 32.4612L221.415 32.4644L221.408 42.4497L216.728 42.4465Z" fill="white"/>
<path d="M88.7784 64.0123C87.9163 64.0123 87.1175 63.8571 86.3818 63.5467C85.6462 63.2249 85.0025 62.7824 84.4508 62.2192C83.9106 61.656 83.4911 61.0008 83.1922 60.2537C82.8934 59.5065 82.7439 58.7077 82.7439 57.8571C82.7439 56.9951 82.8934 56.1905 83.1922 55.4434C83.4911 54.6962 83.9106 54.0468 84.4508 53.4951C85.0025 52.9319 85.6405 52.4951 86.3646 52.1848C87.1002 51.8629 87.8991 51.702 88.7611 51.702C89.7037 51.702 90.5312 51.8629 91.2439 52.1848C91.9565 52.5066 92.5887 52.9434 93.1404 53.4951L92.0197 54.6158C91.6404 54.1905 91.1749 53.8572 90.6232 53.6158C90.083 53.3744 89.4623 53.2537 88.7611 53.2537C88.129 53.2537 87.5485 53.3687 87.0198 53.5985C86.491 53.8169 86.0313 54.133 85.6405 54.5468C85.2497 54.9606 84.9451 55.4491 84.7267 56.0123C84.5198 56.5755 84.4163 57.1905 84.4163 57.8571C84.4163 58.5238 84.5198 59.1387 84.7267 59.7019C84.9451 60.2652 85.2497 60.7537 85.6405 61.1674C86.0313 61.5812 86.491 61.9031 87.0198 62.133C87.5485 62.3513 88.129 62.4605 88.7611 62.4605C89.5083 62.4605 90.1577 62.3399 90.7094 62.0985C91.2611 61.8456 91.7266 61.5065 92.1059 61.0812L93.2266 62.1847C92.6749 62.7594 92.0255 63.2077 91.2784 63.5295C90.5427 63.8513 89.7094 64.0123 88.7784 64.0123ZM100.178 64.0123C99.327 64.0123 98.5339 63.8571 97.7982 63.5467C97.0626 63.2249 96.4189 62.7824 95.8672 62.2192C95.3155 61.6445 94.8845 60.9835 94.5741 60.2364C94.2753 59.4893 94.1259 58.6905 94.1259 57.8399C94.1259 56.9778 94.2753 56.179 94.5741 55.4434C94.8845 54.6962 95.3098 54.0411 95.85 53.4779C96.4017 52.9146 97.0396 52.4779 97.7638 52.1675C98.4994 51.8572 99.2925 51.702 100.143 51.702C100.994 51.702 101.781 51.8572 102.505 52.1675C103.241 52.4779 103.884 52.9146 104.436 53.4779C104.988 54.0411 105.419 54.6962 105.729 55.4434C106.04 56.1905 106.195 56.9951 106.195 57.8571C106.195 58.7077 106.04 59.5065 105.729 60.2537C105.419 61.0008 104.988 61.656 104.436 62.2192C103.896 62.7824 103.258 63.2249 102.522 63.5467C101.798 63.8571 101.017 64.0123 100.178 64.0123ZM100.143 62.4605C101.005 62.4605 101.758 62.2651 102.402 61.8743C103.057 61.472 103.574 60.9261 103.953 60.2364C104.333 59.5353 104.522 58.7364 104.522 57.8399C104.522 57.1732 104.413 56.564 104.195 56.0123C103.976 55.4491 103.672 54.9606 103.281 54.5468C102.89 54.133 102.43 53.8169 101.902 53.5985C101.373 53.3687 100.787 53.2537 100.143 53.2537C99.2925 53.2537 98.5396 53.4491 97.8844 53.8399C97.2408 54.2307 96.7293 54.7709 96.35 55.4606C95.9822 56.1502 95.7983 56.9433 95.7983 57.8399C95.7983 58.5065 95.9017 59.1272 96.1086 59.7019C96.327 60.2652 96.6258 60.7537 97.0051 61.1674C97.3959 61.5697 97.8557 61.8858 98.3844 62.1157C98.9247 62.3456 99.5109 62.4605 100.143 62.4605ZM108.418 63.8398V51.8744H109.556L110.039 53.7537V63.8398H108.418ZM116.694 63.8398L109.349 54.0296L109.556 51.8744L116.918 61.6674L116.694 63.8398ZM116.694 63.8398L116.211 62.064V51.8744H117.832V63.8398H116.694ZM123.75 64.0123C122.808 64.0123 122.003 63.8398 121.337 63.495C120.67 63.1502 120.078 62.6502 119.561 61.995L120.664 60.8916C121.043 61.4203 121.48 61.8226 121.975 62.0985C122.469 62.3628 123.078 62.495 123.802 62.495C124.515 62.495 125.084 62.3399 125.509 62.0295C125.946 61.7192 126.164 61.2939 126.164 60.7537C126.164 60.3054 126.061 59.9433 125.854 59.6675C125.647 59.3916 125.365 59.1675 125.009 58.9951C124.664 58.8111 124.285 58.6502 123.871 58.5123C123.457 58.3629 123.043 58.2077 122.63 58.0468C122.216 57.8744 121.837 57.6675 121.492 57.4261C121.147 57.1732 120.865 56.8456 120.647 56.4433C120.44 56.0411 120.337 55.5353 120.337 54.9261C120.337 54.248 120.498 53.6733 120.819 53.202C121.153 52.7192 121.601 52.3514 122.164 52.0985C122.739 51.8342 123.383 51.702 124.095 51.702C124.877 51.702 125.578 51.8572 126.199 52.1675C126.819 52.4664 127.325 52.8629 127.716 53.3572L126.612 54.4606C126.256 54.0468 125.871 53.7365 125.457 53.5296C125.055 53.3227 124.589 53.2192 124.061 53.2192C123.417 53.2192 122.906 53.3629 122.526 53.6503C122.147 53.9261 121.957 54.3169 121.957 54.8227C121.957 55.225 122.061 55.5525 122.268 55.8054C122.486 56.0468 122.768 56.2537 123.112 56.4261C123.457 56.5985 123.837 56.7594 124.25 56.9089C124.676 57.0468 125.095 57.202 125.509 57.3744C125.923 57.5468 126.302 57.7652 126.647 58.0295C126.992 58.2939 127.268 58.6387 127.474 59.064C127.693 59.4778 127.802 60.0008 127.802 60.633C127.802 61.6904 127.434 62.518 126.699 63.1157C125.974 63.7134 124.992 64.0123 123.75 64.0123ZM132.603 63.8398V52.2192H134.224V63.8398H132.603ZM128.534 53.3572V51.8744H138.275V53.3572H128.534ZM141.293 58.633V57.2709H144.534C145.235 57.2709 145.775 57.0928 146.155 56.7364C146.534 56.3801 146.724 55.8974 146.724 55.2882C146.724 54.7135 146.534 54.2365 146.155 53.8572C145.787 53.4778 145.252 53.2882 144.551 53.2882H141.293V51.8744H144.603C145.362 51.8744 146.023 52.0238 146.586 52.3227C147.149 52.61 147.58 53.0066 147.879 53.5123C148.189 54.0181 148.344 54.5985 148.344 55.2537C148.344 55.9319 148.189 56.5238 147.879 57.0295C147.58 57.5353 147.149 57.9318 146.586 58.2192C146.023 58.4951 145.362 58.633 144.603 58.633H141.293ZM140.206 63.8398V51.8744H141.827V63.8398H140.206ZM147.103 63.8398L142.758 58.4778L144.293 57.9433L149.155 63.8398H147.103ZM155.28 64.0123C154.395 64.0123 153.602 63.8169 152.9 63.4261C152.211 63.0238 151.665 62.4778 151.263 61.7881C150.86 61.087 150.659 60.2939 150.659 59.4088V51.8744H152.28V59.3744C152.28 60.0065 152.412 60.5525 152.676 61.0123C152.941 61.472 153.297 61.8284 153.745 62.0812C154.205 62.3341 154.717 62.4605 155.28 62.4605C155.866 62.4605 156.377 62.3341 156.814 62.0812C157.263 61.8284 157.613 61.472 157.866 61.0123C158.13 60.5525 158.263 60.0123 158.263 59.3916V51.8744H159.9V59.4261C159.9 60.3111 159.699 61.0985 159.297 61.7881C158.895 62.4778 158.349 63.0238 157.659 63.4261C156.969 63.8169 156.176 64.0123 155.28 64.0123ZM167.997 64.0123C167.135 64.0123 166.336 63.8571 165.601 63.5467C164.865 63.2249 164.221 62.7824 163.67 62.2192C163.129 61.656 162.71 61.0008 162.411 60.2537C162.112 59.5065 161.963 58.7077 161.963 57.8571C161.963 56.9951 162.112 56.1905 162.411 55.4434C162.71 54.6962 163.129 54.0468 163.67 53.4951C164.221 52.9319 164.859 52.4951 165.583 52.1848C166.319 51.8629 167.118 51.702 167.98 51.702C168.922 51.702 169.75 51.8629 170.463 52.1848C171.175 52.5066 171.808 52.9434 172.359 53.4951L171.239 54.6158C170.859 54.1905 170.394 53.8572 169.842 53.6158C169.302 53.3744 168.681 53.2537 167.98 53.2537C167.348 53.2537 166.767 53.3687 166.239 53.5985C165.71 53.8169 165.25 54.133 164.859 54.5468C164.469 54.9606 164.164 55.4491 163.946 56.0123C163.739 56.5755 163.635 57.1905 163.635 57.8571C163.635 58.5238 163.739 59.1387 163.946 59.7019C164.164 60.2652 164.469 60.7537 164.859 61.1674C165.25 61.5812 165.71 61.9031 166.239 62.133C166.767 62.3513 167.348 62.4605 167.98 62.4605C168.727 62.4605 169.377 62.3399 169.928 62.0985C170.48 61.8456 170.945 61.5065 171.325 61.0812L172.445 62.1847C171.894 62.7594 171.244 63.2077 170.497 63.5295C169.762 63.8513 168.928 64.0123 167.997 64.0123ZM177.339 63.8398V52.2192H178.96V63.8398H177.339ZM173.27 53.3572V51.8744H183.012V53.3572H173.27ZM184.943 63.8398V51.8744H186.563V63.8398H184.943ZM194.836 64.0123C193.985 64.0123 193.192 63.8571 192.457 63.5467C191.721 63.2249 191.077 62.7824 190.526 62.2192C189.974 61.6445 189.543 60.9835 189.233 60.2364C188.934 59.4893 188.784 58.6905 188.784 57.8399C188.784 56.9778 188.934 56.179 189.233 55.4434C189.543 54.6962 189.968 54.0411 190.509 53.4779C191.06 52.9146 191.698 52.4779 192.422 52.1675C193.158 51.8572 193.951 51.702 194.802 51.702C195.652 51.702 196.439 51.8572 197.164 52.1675C197.899 52.4779 198.543 52.9146 199.095 53.4779C199.646 54.0411 200.077 54.6962 200.388 55.4434C200.698 56.1905 200.853 56.9951 200.853 57.8571C200.853 58.7077 200.698 59.5065 200.388 60.2537C200.077 61.0008 199.646 61.656 199.095 62.2192C198.554 62.7824 197.916 63.2249 197.181 63.5467C196.457 63.8571 195.675 64.0123 194.836 64.0123ZM194.802 62.4605C195.664 62.4605 196.417 62.2651 197.06 61.8743C197.715 61.472 198.233 60.9261 198.612 60.2364C198.991 59.5353 199.181 58.7364 199.181 57.8399C199.181 57.1732 199.072 56.564 198.853 56.0123C198.635 55.4491 198.33 54.9606 197.939 54.5468C197.549 54.133 197.089 53.8169 196.56 53.5985C196.031 53.3687 195.445 53.2537 194.802 53.2537C193.951 53.2537 193.198 53.4491 192.543 53.8399C191.899 54.2307 191.388 54.7709 191.008 55.4606C190.641 56.1502 190.457 56.9433 190.457 57.8399C190.457 58.5065 190.56 59.1272 190.767 59.7019C190.986 60.2652 191.284 60.7537 191.664 61.1674C192.054 61.5697 192.514 61.8858 193.043 62.1157C193.583 62.3456 194.169 62.4605 194.802 62.4605ZM203.076 63.8398V51.8744H204.214L204.697 53.7537V63.8398H203.076ZM211.352 63.8398L204.007 54.0296L204.214 51.8744L211.576 61.6674L211.352 63.8398ZM211.352 63.8398L210.869 62.064V51.8744H212.49V63.8398H211.352ZM218.409 64.0123C217.466 64.0123 216.662 63.8398 215.995 63.495C215.328 63.1502 214.736 62.6502 214.219 61.995L215.323 60.8916C215.702 61.4203 216.139 61.8226 216.633 62.0985C217.127 62.3628 217.736 62.495 218.461 62.495C219.173 62.495 219.742 62.3399 220.167 62.0295C220.604 61.7192 220.823 61.2939 220.823 60.7537C220.823 60.3054 220.719 59.9433 220.512 59.6675C220.305 59.3916 220.024 59.1675 219.667 58.9951C219.323 58.8111 218.943 58.6502 218.53 58.5123C218.116 58.3629 217.702 58.2077 217.288 58.0468C216.874 57.8744 216.495 57.6675 216.15 57.4261C215.805 57.1732 215.524 56.8456 215.305 56.4433C215.099 56.0411 214.995 55.5353 214.995 54.9261C214.995 54.248 215.156 53.6733 215.478 53.202C215.811 52.7192 216.259 52.3514 216.823 52.0985C217.397 51.8342 218.041 51.702 218.754 51.702C219.535 51.702 220.236 51.8572 220.857 52.1675C221.478 52.4664 221.984 52.8629 222.374 53.3572L221.271 54.4606C220.915 54.0468 220.53 53.7365 220.116 53.5296C219.713 53.3227 219.248 53.2192 218.719 53.2192C218.076 53.2192 217.564 53.3629 217.185 53.6503C216.805 53.9261 216.616 54.3169 216.616 54.8227C216.616 55.225 216.719 55.5525 216.926 55.8054C217.145 56.0468 217.426 56.2537 217.771 56.4261C218.116 56.5985 218.495 56.7594 218.909 56.9089C219.334 57.0468 219.754 57.202 220.167 57.3744C220.581 57.5468 220.961 57.7652 221.305 58.0295C221.65 58.2939 221.926 58.6387 222.133 59.064C222.351 59.4778 222.461 60.0008 222.461 60.633C222.461 61.6904 222.093 62.518 221.357 63.1157C220.633 63.7134 219.65 64.0123 218.409 64.0123Z" fill="white"/>
</g>
<defs>
<clipPath id="clip0_504_4214">
<rect width="222" height="77.3036" fill="white" transform="translate(10 1.21484)"/>
</clipPath>
</defs>
</svg>
