<svg width="250" height="80" viewBox="0 0 250 80" fill="none" xmlns="http://www.w3.org/2000/svg">
<g clip-path="url(#clip0_504_4214)">
<path d="M39.647 66.7803C39.647 66.7803 39.4625 66.9121 39.278 66.9648H15.7124C15.7124 66.9648 15.6069 66.9912 15.5278 66.9648C15.396 66.9121 15.317 66.7539 15.3433 66.5958V49.9628C15.3433 47.9067 15.3433 40.7633 15.3433 38.6281C15.3433 38.3645 15.1324 38.1536 14.8689 38.1536C12.7337 38.1009 10.5986 38.0746 8.46343 38.0218C7.98896 38.0218 7.80444 37.3892 8.19984 37.1256C13.7354 33.3825 19.2973 29.6131 24.8328 25.87C27.6533 23.9457 30.4738 22.0215 33.3207 20.0972C35.324 18.9637 37.301 17.8566 39.3043 16.7232C39.647 16.5386 40.0424 16.7759 40.0424 17.1449V38.4436C40.0424 38.6281 39.937 38.7863 39.7788 38.8653C39.2516 39.1553 38.4345 39.5243 37.4064 39.6561C35.7721 39.867 34.4541 39.3662 33.7424 39.0499C33.5843 38.9708 33.4788 38.8126 33.4525 38.6018C33.3997 35.4386 33.347 32.2754 33.2943 29.1122C33.2943 28.7168 32.8462 28.506 32.5299 28.7168L22.355 35.4386C22.2232 35.5177 22.1178 35.6758 22.1441 35.8603C22.1705 38.3909 22.2232 40.9478 22.2496 43.4783C22.2496 43.7419 22.4868 43.9528 22.7504 43.9528H38.9353C39.1462 43.9528 39.3307 44.0846 39.4098 44.2955C39.647 45.0335 39.8842 46.0616 39.8579 47.3005C39.8579 48.3812 39.6206 49.2774 39.4098 49.9364C39.3571 50.1473 39.1462 50.2791 38.9353 50.2791C33.6633 50.3318 28.3914 50.3846 23.1458 50.4636C22.8822 50.4636 22.645 50.7009 22.645 50.9645V59.136C22.645 59.3996 22.8822 59.6368 23.1458 59.6368C26.4935 59.6105 29.8675 59.5577 33.2152 59.5314C33.4788 59.5314 33.6897 59.3205 33.7161 59.0569C33.7688 57.8444 33.7951 56.6055 33.8479 55.3929C33.8479 55.1557 34.0324 54.9448 34.296 54.9184C35.1395 54.813 35.4822 54.8657 37.0638 54.7866C38.6717 54.7076 39.1462 54.4967 39.5416 54.6285C39.647 54.6812 39.7261 54.7076 39.8052 54.7866C40.1478 55.1029 40.0951 55.6301 40.0688 56.4737C40.0688 56.8954 40.0688 57.3435 40.0688 57.7916C40.0688 58.477 40.0688 59.1623 40.0688 59.8477V63.2217C40.0688 65.3832 40.2533 66.3058 39.6997 66.7803H39.647Z" fill="#454545"/>
<path d="M44.1727 66.5968C50.9999 66.7286 57.8271 66.8341 64.6542 66.9659C65.2341 66.9659 66.3676 66.8341 67.3693 66.0433C67.7383 65.727 68.371 65.0943 68.8718 63.2492C69.109 62.3529 69.2408 61.5621 69.2408 56.7119C69.2408 56.4747 69.2408 56.5801 69.2408 52.7843V50.5438C69.3199 42.135 69.5308 39.3409 69.7944 39.1036L70.2425 38.6555C72.5885 38.6028 74.9345 38.5501 77.2805 38.4974C77.7287 38.4974 77.9132 37.8911 77.5178 37.6539C72.8785 34.5698 68.2392 31.4857 63.5735 28.4016C63.2572 28.1907 62.8618 28.4016 62.8618 28.797C62.8881 38.7346 62.9408 48.6459 62.9672 58.5835C62.9672 58.8207 62.7827 59.0316 62.5454 59.058L60.6212 59.1898C60.3576 59.1898 60.1204 59.0052 60.1204 58.7153C60.1204 48.145 60.094 37.5748 60.0676 27.0309C60.0676 26.8991 60.0149 26.7673 59.9095 26.6882C58.2752 25.3175 56.6672 23.9468 55.0329 22.5761C54.743 22.3125 54.2685 22.5234 54.2685 22.9188C54.163 34.9124 54.0576 46.8798 53.9785 58.8734C53.9785 59.137 53.7677 59.3479 53.5041 59.3216C52.7923 59.2952 52.0806 59.2425 51.3689 59.2161C51.1317 59.2161 50.9208 59.0052 50.9208 58.7416C50.9735 46.1153 51.0526 33.4627 51.1053 20.8363C51.1053 20.5991 50.9208 20.4673 50.9208 20.4673C50.2091 19.1757 49.2338 18.7276 46.0442 16.8297C45.2798 16.3815 45.2271 16.3288 45.1217 16.3552C43.9618 16.6188 44.0145 21.0209 44.1991 30.5631C44.3309 36.9158 44.3572 37.3903 44.3836 39.7363C44.5154 47.8024 44.4363 54.076 44.3836 57.8718C44.3309 61.3776 44.2518 64.3826 44.1991 66.6496L44.1727 66.5968Z" fill="#FFCE00"/>
<path d="M86.2051 42.3539L86.2198 21.3103L90.8995 21.3135L90.8848 42.3572L86.2051 42.3539ZM89.782 42.3564L89.7848 38.3027L101.32 38.3108L101.317 42.3645L89.782 42.3564ZM89.7881 33.5634L89.7908 29.6587L100.283 29.666L100.28 33.5707L89.7881 33.5634ZM89.7939 25.3367L89.7967 21.3128L101.183 21.3207L101.18 25.3447L89.7939 25.3367ZM102.964 42.3656L111.324 21.3278L115.557 21.3308L123.799 42.3802L118.851 42.3767L112.544 24.9055L114.243 24.9067L107.822 42.369L102.964 42.3656ZM107.706 38.5537L107.708 34.7384L119.184 34.7464L119.181 38.5617L107.706 38.5537ZM131.937 42.7137C130.208 42.7125 128.718 42.4333 127.466 41.876C126.235 41.2989 125.102 40.4337 124.07 39.2805L127.112 36.2721C127.787 37.0475 128.532 37.6541 129.347 38.0919C130.181 38.5097 131.145 38.7191 132.237 38.7198C133.231 38.7205 133.996 38.5422 134.533 38.1849C135.09 37.8276 135.368 37.331 135.369 36.6951C135.369 36.1189 135.191 35.6518 134.833 35.2938C134.476 34.9359 133.999 34.6276 133.403 34.3688C132.827 34.1101 132.181 33.8613 131.466 33.6223C130.771 33.3834 130.075 33.1146 129.38 32.8161C128.685 32.4976 128.039 32.1097 127.443 31.6522C126.868 31.1749 126.401 30.5884 126.044 29.8927C125.687 29.177 125.508 28.2827 125.509 27.2097C125.51 25.918 125.819 24.8055 126.435 23.8719C127.072 22.9384 127.947 22.2336 129.06 21.7575C130.173 21.2615 131.455 21.014 132.906 21.015C134.376 21.016 135.717 21.2753 136.929 21.7928C138.161 22.3103 139.174 23.0164 139.968 23.9112L136.925 26.9196C136.29 26.2634 135.645 25.7761 134.989 25.4577C134.353 25.1393 133.628 24.9798 132.813 24.9792C131.999 24.9787 131.353 25.1372 130.876 25.4548C130.399 25.7525 130.16 26.1895 130.159 26.7658C130.159 27.3023 130.338 27.7396 130.695 28.0777C131.052 28.3959 131.519 28.6744 132.095 28.9133C132.691 29.1521 133.337 29.391 134.032 29.63C134.747 29.8689 135.453 30.1476 136.148 30.466C136.843 30.7845 137.479 31.1923 138.055 31.6895C138.651 32.1668 139.127 32.7831 139.484 33.5385C139.841 34.274 140.02 35.1882 140.019 36.2811C140.017 38.2881 139.301 39.8674 137.869 41.0189C136.438 42.1506 134.46 42.7155 131.937 42.7137ZM147.366 42.3966L147.381 21.651L152.06 21.6543L152.046 42.3999L147.366 42.3966ZM140.791 25.4319L140.793 21.3484L158.648 21.3608L158.645 25.4444L140.791 25.4319ZM171.703 42.4136L164.951 21.3652L169.601 21.3685L174.538 37.5571L172.72 37.5558L177.56 21.374L181.226 21.3766L186.043 37.5651L184.255 37.5639L189.184 21.3822L193.804 21.3854L187.023 42.4243L183.357 42.4218L178.51 26.2332L180.239 26.2344L175.369 42.4162L171.703 42.4136ZM192.413 42.4281L200.774 21.3902L205.007 21.3932L213.248 42.4426L208.301 42.4392L201.994 24.9679L203.693 24.9691L197.272 42.4315L192.413 42.4281ZM197.155 38.6161L197.158 34.8008L208.634 34.8088L208.631 38.6241L197.155 38.6161ZM219.3 34.6076L211.202 21.3975L216.626 21.4013L222.849 32.0765L219.361 32.0741L225.598 21.4076L230.904 21.4113L222.728 34.61L219.3 34.6076ZM218.728 42.4465L218.735 32.4612L223.415 32.4644L223.408 42.4497L218.728 42.4465Z" fill="white"/>
<path d="M90.7784 64.0123C89.9163 64.0123 89.1175 63.8571 88.3818 63.5467C87.6462 63.2249 87.0025 62.7824 86.4508 62.2192C85.9106 61.656 85.4911 61.0008 85.1922 60.2537C84.8934 59.5065 84.7439 58.7077 84.7439 57.8571C84.7439 56.9951 84.8934 56.1905 85.1922 55.4434C85.4911 54.6962 85.9106 54.0468 86.4508 53.4951C87.0025 52.9319 87.6405 52.4951 88.3646 52.1848C89.1002 51.8629 89.8991 51.702 90.7611 51.702C91.7037 51.702 92.5312 51.8629 93.2439 52.1848C93.9565 52.5066 94.5887 52.9434 95.1404 53.4951L94.0197 54.6158C93.6404 54.1905 93.1749 53.8572 92.6232 53.6158C92.083 53.3744 91.4623 53.2537 90.7611 53.2537C90.129 53.2537 89.5485 53.3687 89.0198 53.5985C88.491 53.8169 88.0313 54.133 87.6405 54.5468C87.2497 54.9606 86.9451 55.4491 86.7267 56.0123C86.5198 56.5755 86.4163 57.1905 86.4163 57.8571C86.4163 58.5238 86.5198 59.1387 86.7267 59.7019C86.9451 60.2652 87.2497 60.7537 87.6405 61.1674C88.0313 61.5812 88.491 61.9031 89.0198 62.133C89.5485 62.3513 90.129 62.4605 90.7611 62.4605C91.5083 62.4605 92.1577 62.3399 92.7094 62.0985C93.2611 61.8456 93.7266 61.5065 94.1059 61.0812L95.2266 62.1847C94.6749 62.7594 94.0255 63.2077 93.2784 63.5295C92.5427 63.8513 91.7094 64.0123 90.7784 64.0123ZM102.178 64.0123C101.327 64.0123 100.534 63.8571 99.7982 63.5467C99.0626 63.2249 98.4189 62.7824 97.8672 62.2192C97.3155 61.6445 96.8845 60.9835 96.5741 60.2364C96.2753 59.4893 96.1259 58.6905 96.1259 57.8399C96.1259 56.9778 96.2753 56.179 96.5741 55.4434C96.8845 54.6962 97.3098 54.0411 97.85 53.4779C98.4017 52.9146 99.0396 52.4779 99.7638 52.1675C100.499 51.8572 101.292 51.702 102.143 51.702C102.994 51.702 103.781 51.8572 104.505 52.1675C105.241 52.4779 105.884 52.9146 106.436 53.4779C106.988 54.0411 107.419 54.6962 107.729 55.4434C108.04 56.1905 108.195 56.9951 108.195 57.8571C108.195 58.7077 108.04 59.5065 107.729 60.2537C107.419 61.0008 106.988 61.656 106.436 62.2192C105.896 62.7824 105.258 63.2249 104.522 63.5467C103.798 63.8571 103.017 64.0123 102.178 64.0123ZM102.143 62.4605C103.005 62.4605 103.758 62.2651 104.402 61.8743C105.057 61.472 105.574 60.9261 105.953 60.2364C106.333 59.5353 106.522 58.7364 106.522 57.8399C106.522 57.1732 106.413 56.564 106.195 56.0123C105.976 55.4491 105.672 54.9606 105.281 54.5468C104.89 54.133 104.43 53.8169 103.902 53.5985C103.373 53.3687 102.787 53.2537 102.143 53.2537C101.292 53.2537 100.54 53.4491 99.8844 53.8399C99.2408 54.2307 98.7293 54.7709 98.35 55.4606C97.9822 56.1502 97.7983 56.9433 97.7983 57.8399C97.7983 58.5065 97.9017 59.1272 98.1086 59.7019C98.327 60.2652 98.6258 60.7537 99.0051 61.1674C99.3959 61.5697 99.8557 61.8858 100.384 62.1157C100.925 62.3456 101.511 62.4605 102.143 62.4605ZM110.418 63.8398V51.8744H111.556L112.039 53.7537V63.8398H110.418ZM118.694 63.8398L111.349 54.0296L111.556 51.8744L118.918 61.6674L118.694 63.8398ZM118.694 63.8398L118.211 62.064V51.8744H119.832V63.8398H118.694ZM125.75 64.0123C124.808 64.0123 124.003 63.8398 123.337 63.495C122.67 63.1502 122.078 62.6502 121.561 61.995L122.664 60.8916C123.043 61.4203 123.48 61.8226 123.975 62.0985C124.469 62.3628 125.078 62.495 125.802 62.495C126.515 62.495 127.084 62.3399 127.509 62.0295C127.946 61.7192 128.164 61.2939 128.164 60.7537C128.164 60.3054 128.061 59.9433 127.854 59.6675C127.647 59.3916 127.365 59.1675 127.009 58.9951C126.664 58.8111 126.285 58.6502 125.871 58.5123C125.457 58.3629 125.043 58.2077 124.63 58.0468C124.216 57.8744 123.837 57.6675 123.492 57.4261C123.147 57.1732 122.865 56.8456 122.647 56.4433C122.44 56.0411 122.337 55.5353 122.337 54.9261C122.337 54.248 122.498 53.6733 122.819 53.202C123.153 52.7192 123.601 52.3514 124.164 52.0985C124.739 51.8342 125.383 51.702 126.095 51.702C126.877 51.702 127.578 51.8572 128.199 52.1675C128.819 52.4664 129.325 52.8629 129.716 53.3572L128.612 54.4606C128.256 54.0468 127.871 53.7365 127.457 53.5296C127.055 53.3227 126.589 53.2192 126.061 53.2192C125.417 53.2192 124.906 53.3629 124.526 53.6503C124.147 53.9261 123.957 54.3169 123.957 54.8227C123.957 55.225 124.061 55.5525 124.268 55.8054C124.486 56.0468 124.768 56.2537 125.112 56.4261C125.457 56.5985 125.837 56.7594 126.25 56.9089C126.676 57.0468 127.095 57.202 127.509 57.3744C127.923 57.5468 128.302 57.7652 128.647 58.0295C128.992 58.2939 129.268 58.6387 129.474 59.064C129.693 59.4778 129.802 60.0008 129.802 60.633C129.802 61.6904 129.434 62.518 128.699 63.1157C127.974 63.7134 126.992 64.0123 125.75 64.0123ZM134.603 63.8398V52.2192H136.224V63.8398H134.603ZM130.534 53.3572V51.8744H140.275V53.3572H130.534ZM143.293 58.633V57.2709H146.534C147.235 57.2709 147.775 57.0928 148.155 56.7364C148.534 56.3801 148.724 55.8974 148.724 55.2882C148.724 54.7135 148.534 54.2365 148.155 53.8572C147.787 53.4778 147.252 53.2882 146.551 53.2882H143.293V51.8744H146.603C147.362 51.8744 148.023 52.0238 148.586 52.3227C149.149 52.61 149.58 53.0066 149.879 53.5123C150.189 54.0181 150.344 54.5985 150.344 55.2537C150.344 55.9319 150.189 56.5238 149.879 57.0295C149.58 57.5353 149.149 57.9318 148.586 58.2192C148.023 58.4951 147.362 58.633 146.603 58.633H143.293ZM142.206 63.8398V51.8744H143.827V63.8398H142.206ZM149.103 63.8398L144.758 58.4778L146.293 57.9433L151.155 63.8398H149.103ZM157.28 64.0123C156.395 64.0123 155.602 63.8169 154.9 63.4261C154.211 63.0238 153.665 62.4778 153.263 61.7881C152.86 61.087 152.659 60.2939 152.659 59.4088V51.8744H154.28V59.3744C154.28 60.0065 154.412 60.5525 154.676 61.0123C154.941 61.472 155.297 61.8284 155.745 62.0812C156.205 62.3341 156.717 62.4605 157.28 62.4605C157.866 62.4605 158.377 62.3341 158.814 62.0812C159.263 61.8284 159.613 61.472 159.866 61.0123C160.13 60.5525 160.263 60.0123 160.263 59.3916V51.8744H161.9V59.4261C161.9 60.3111 161.699 61.0985 161.297 61.7881C160.895 62.4778 160.349 63.0238 159.659 63.4261C158.969 63.8169 158.176 64.0123 157.28 64.0123ZM169.997 64.0123C169.135 64.0123 168.336 63.8571 167.601 63.5467C166.865 63.2249 166.221 62.7824 165.67 62.2192C165.129 61.656 164.71 61.0008 164.411 60.2537C164.112 59.5065 163.963 58.7077 163.963 57.8571C163.963 56.9951 164.112 56.1905 164.411 55.4434C164.71 54.6962 165.129 54.0468 165.67 53.4951C166.221 52.9319 166.859 52.4951 167.583 52.1848C168.319 51.8629 169.118 51.702 169.98 51.702C170.922 51.702 171.75 51.8629 172.463 52.1848C173.175 52.5066 173.808 52.9434 174.359 53.4951L173.239 54.6158C172.859 54.1905 172.394 53.8572 171.842 53.6158C171.302 53.3744 170.681 53.2537 169.98 53.2537C169.348 53.2537 168.767 53.3687 168.239 53.5985C167.71 53.8169 167.25 54.133 166.859 54.5468C166.469 54.9606 166.164 55.4491 165.946 56.0123C165.739 56.5755 165.635 57.1905 165.635 57.8571C165.635 58.5238 165.739 59.1387 165.946 59.7019C166.164 60.2652 166.469 60.7537 166.859 61.1674C167.25 61.5812 167.71 61.9031 168.239 62.133C168.767 62.3513 169.348 62.4605 169.98 62.4605C170.727 62.4605 171.377 62.3399 171.928 62.0985C172.48 61.8456 172.945 61.5065 173.325 61.0812L174.445 62.1847C173.894 62.7594 173.244 63.2077 172.497 63.5295C171.762 63.8513 170.928 64.0123 169.997 64.0123ZM179.339 63.8398V52.2192H180.96V63.8398H179.339ZM175.27 53.3572V51.8744H185.012V53.3572H175.27ZM186.943 63.8398V51.8744H188.563V63.8398H186.943ZM196.836 64.0123C195.985 64.0123 195.192 63.8571 194.457 63.5467C193.721 63.2249 193.077 62.7824 192.526 62.2192C191.974 61.6445 191.543 60.9835 191.233 60.2364C190.934 59.4893 190.784 58.6905 190.784 57.8399C190.784 56.9778 190.934 56.179 191.233 55.4434C191.543 54.6962 191.968 54.0411 192.509 53.4779C193.06 52.9146 193.698 52.4779 194.422 52.1675C195.158 51.8572 195.951 51.702 196.802 51.702C197.652 51.702 198.439 51.8572 199.164 52.1675C199.899 52.4779 200.543 52.9146 201.095 53.4779C201.646 54.0411 202.077 54.6962 202.388 55.4434C202.698 56.1905 202.853 56.9951 202.853 57.8571C202.853 58.7077 202.698 59.5065 202.388 60.2537C202.077 61.0008 201.646 61.656 201.095 62.2192C200.554 62.7824 199.916 63.2249 199.181 63.5467C198.457 63.8571 197.675 64.0123 196.836 64.0123ZM196.802 62.4605C197.664 62.4605 198.417 62.2651 199.06 61.8743C199.715 61.472 200.233 60.9261 200.612 60.2364C200.991 59.5353 201.181 58.7364 201.181 57.8399C201.181 57.1732 201.072 56.564 200.853 56.0123C200.635 55.4491 200.33 54.9606 199.939 54.5468C199.549 54.133 199.089 53.8169 198.56 53.5985C198.031 53.3687 197.445 53.2537 196.802 53.2537C195.951 53.2537 195.198 53.4491 194.543 53.8399C193.899 54.2307 193.388 54.7709 193.008 55.4606C192.641 56.1502 192.457 56.9433 192.457 57.8399C192.457 58.5065 192.56 59.1272 192.767 59.7019C192.986 60.2652 193.284 60.7537 193.664 61.1674C194.054 61.5697 194.514 61.8858 195.043 62.1157C195.583 62.3456 196.169 62.4605 196.802 62.4605ZM205.076 63.8398V51.8744H206.214L206.697 53.7537V63.8398H205.076ZM213.352 63.8398L206.007 54.0296L206.214 51.8744L213.576 61.6674L213.352 63.8398ZM213.352 63.8398L212.869 62.064V51.8744H214.49V63.8398H213.352ZM220.409 64.0123C219.466 64.0123 218.662 63.8398 217.995 63.495C217.328 63.1502 216.736 62.6502 216.219 61.995L217.323 60.8916C217.702 61.4203 218.139 61.8226 218.633 62.0985C219.127 62.3628 219.736 62.495 220.461 62.495C221.173 62.495 221.742 62.3399 222.167 62.0295C222.604 61.7192 222.823 61.2939 222.823 60.7537C222.823 60.3054 222.719 59.9433 222.512 59.6675C222.305 59.3916 222.024 59.1675 221.667 58.9951C221.323 58.8111 220.943 58.6502 220.53 58.5123C220.116 58.3629 219.702 58.2077 219.288 58.0468C218.874 57.8744 218.495 57.6675 218.15 57.4261C217.805 57.1732 217.524 56.8456 217.305 56.4433C217.099 56.0411 216.995 55.5353 216.995 54.9261C216.995 54.248 217.156 53.6733 217.478 53.202C217.811 52.7192 218.259 52.3514 218.823 52.0985C219.397 51.8342 220.041 51.702 220.754 51.702C221.535 51.702 222.236 51.8572 222.857 52.1675C223.478 52.4664 223.984 52.8629 224.374 53.3572L223.271 54.4606C222.915 54.0468 222.53 53.7365 222.116 53.5296C221.713 53.3227 221.248 53.2192 220.719 53.2192C220.076 53.2192 219.564 53.3629 219.185 53.6503C218.805 53.9261 218.616 54.3169 218.616 54.8227C218.616 55.225 218.719 55.5525 218.926 55.8054C219.145 56.0468 219.426 56.2537 219.771 56.4261C220.116 56.5985 220.495 56.7594 220.909 56.9089C221.334 57.0468 221.754 57.202 222.167 57.3744C222.581 57.5468 222.961 57.7652 223.305 58.0295C223.65 58.2939 223.926 58.6387 224.133 59.064C224.351 59.4778 224.461 60.0008 224.461 60.633C224.461 61.6904 224.093 62.518 223.357 63.1157C222.633 63.7134 221.65 64.0123 220.409 64.0123Z" fill="white"/>
</g>
<defs>
<clipPath id="clip0_504_4214">
<rect width="222" height="77.3036" fill="white" transform="translate(10 1.21484)"/>
</clipPath>
</defs>
</svg>
