<svg width="250" height="80" viewBox="0 0 250 80" fill="none" xmlns="http://www.w3.org/2000/svg">
<rect width="250" height="80" fill="white"/>
<g clip-path="url(#clip0_64_1030)">
<path d="M37.1273 63.8045C37.1273 63.8045 36.9656 63.9253 36.7905 63.9656H15.8833C15.8833 63.9656 15.789 63.9924 15.7216 63.9656C15.6139 63.9253 15.5465 63.791 15.56 63.6299V48.9014C15.56 47.0755 15.56 40.7652 15.56 38.8721C15.56 38.6304 15.3714 38.4425 15.1289 38.4425C13.2295 38.4022 11.3435 38.3753 9.44408 38.3351C9.01301 38.3351 8.85135 37.7846 9.2016 37.5429C14.132 34.2267 19.049 30.9104 23.9794 27.5807C26.4851 25.8756 28.9907 24.1705 31.5098 22.4653C33.2745 21.4718 35.0527 20.4783 36.8174 19.4713C37.1138 19.3102 37.4775 19.5116 37.4775 19.8472V38.6976C37.4775 38.8587 37.3832 39.0064 37.2485 39.0869C36.777 39.3554 36.0631 39.6642 35.147 39.7851C33.6787 39.9731 32.5201 39.53 31.9005 39.248C31.7523 39.1809 31.658 39.0332 31.658 38.8587C31.6041 36.0526 31.5637 33.26 31.5098 30.4539C31.5098 30.1048 31.1191 29.9034 30.8228 30.0914L21.7971 36.0392C21.6759 36.1197 21.5951 36.254 21.5951 36.4151C21.622 38.6573 21.6489 40.9129 21.6893 43.155C21.6893 43.3967 21.8914 43.5847 22.1204 43.5847H36.4807C36.6693 43.5847 36.8444 43.7055 36.8983 43.8935C37.1003 44.5379 37.3159 45.4509 37.2889 46.5653C37.2755 47.5185 37.0869 48.3241 36.8983 48.9149C36.8444 49.1028 36.6693 49.2237 36.4807 49.2237C31.8062 49.2774 27.1317 49.3311 22.4437 49.3848C22.2013 49.3848 22.0127 49.5862 22.0127 49.8278V57.0645C22.0127 57.3062 22.2147 57.5076 22.4572 57.5076C25.4343 57.4808 28.4249 57.4539 31.402 57.4136C31.631 57.4136 31.8331 57.2257 31.8331 56.9974C31.8735 55.9099 31.9139 54.8358 31.9544 53.7483C31.9544 53.5335 32.1295 53.3455 32.345 53.3321C33.0859 53.2515 33.3958 53.2784 34.7968 53.2112C36.2247 53.1441 36.6423 52.9427 36.9926 53.0636C37.1003 53.1038 37.1677 53.1441 37.235 53.1978C37.5449 53.4798 37.491 53.9497 37.4641 54.7015C37.4641 55.0909 37.4641 55.4668 37.4641 55.8562C37.4641 56.4604 37.4641 57.0645 37.4641 57.6821V60.6628C37.4641 62.5827 37.6392 63.4017 37.1273 63.8045Z" fill="#454545"/>
<path d="M38.7844 63.63C44.8464 63.7374 50.9084 63.8448 56.9705 63.9656C57.4689 63.9656 58.5062 63.8582 59.3683 63.1332C59.7051 62.8647 60.2439 62.3008 60.702 60.6494C60.9175 59.8707 61.0253 59.1456 61.0387 54.8627C61.0387 54.6613 61.0387 54.7419 61.0387 51.3853V49.3983C61.1061 41.9467 61.3082 39.4898 61.5237 39.2615L61.9278 38.8587C64.0159 38.8184 66.1039 38.7782 68.1919 38.7245C68.596 38.7245 68.7442 38.1874 68.4074 37.9726C64.2853 35.2471 60.1631 32.5216 56.0409 29.7961C55.7715 29.6215 55.4078 29.8095 55.4078 30.1451C55.4347 38.9259 55.4752 47.72 55.5021 56.5007C55.5021 56.7155 55.3404 56.9035 55.1249 56.9169L53.4141 57.0377C53.1716 57.0512 52.983 56.8632 52.9695 56.6215C52.956 47.2769 52.9426 37.9189 52.9156 28.5743C52.9156 28.4535 52.8618 28.3326 52.7675 28.2655C51.326 27.0437 49.8846 25.8354 48.4297 24.6136C48.1603 24.3853 47.7562 24.5733 47.7562 24.9224C47.6619 35.529 47.5811 46.1357 47.4868 56.7424C47.4868 56.9706 47.2847 57.1586 47.0557 57.1451C46.4225 57.1183 45.7894 57.078 45.1697 57.0512C44.9542 57.0512 44.7791 56.8632 44.7791 56.635C44.833 45.451 44.8868 34.267 44.9407 23.083C44.9407 22.8816 44.7791 22.7473 44.7791 22.7473C44.1459 21.5927 43.2838 21.2033 40.4548 19.5251C39.7678 19.1223 39.7409 19.0954 39.6331 19.1088C38.5958 19.3371 38.6362 23.2307 38.7979 31.6892C38.9057 37.3147 38.9326 37.7175 38.9595 39.7986C39.0808 46.9413 39.0134 52.4997 38.9595 55.8428C38.9191 58.9443 38.8518 61.6026 38.7979 63.6166L38.7844 63.63Z" fill="#FFCE00"/>
</g>
<defs>
<clipPath id="clip0_64_1030">
<rect width="232" height="54" fill="white" transform="translate(9 13)"/>
</clipPath>
</defs>
</svg>
