<?xml version="1.0" encoding="UTF-8"?>
<svg id="Layer_1" data-name="Layer 1" xmlns="http://www.w3.org/2000/svg" viewBox="0 0 192 50">
  <defs>
    <style>
      .cls-1 {
        letter-spacing: .15em;
      }

      .cls-2 {
        letter-spacing: .02em;
      }

      .cls-3 {
        fill: #454545;
      }

      .cls-3, .cls-4 {
        stroke-width: 0px;
      }

      .cls-5 {
        letter-spacing: .05em;
      }

      .cls-6 {
        letter-spacing: .12em;
      }

      .cls-7 {
        letter-spacing: .15em;
      }

      .cls-8 {
        font-family: Outfit-Bold, Outfit;
        font-size: 22.93px;
        font-weight: 700;
      }

      .cls-8, .cls-9 {
        fill: #fff;
      }

      .cls-10 {
        letter-spacing: .12em;
      }

      .cls-11 {
        letter-spacing: -.05em;
      }

      .cls-12 {
        letter-spacing: .02em;
      }

      .cls-13 {
        letter-spacing: .13em;
      }

      .cls-14 {
        letter-spacing: .03em;
      }

      .cls-9 {
        font-family: Outfit-Regular, Outfit;
        font-size: 11.91px;
      }

      .cls-15 {
        letter-spacing: .03em;
      }

      .cls-16 {
        letter-spacing: -.03em;
      }

      .cls-4 {
        fill: #ffce00;
      }

      .cls-17 {
        letter-spacing: .14em;
      }
    </style>
  </defs>
  <g>
    <path class="cls-3" d="M21.88,41.62s-.12.09-.25.12H6.11s-.07.02-.12,0c-.08-.03-.13-.13-.12-.25v-10.97c0-1.36,0-6.06,0-7.47,0-.18-.14-.32-.32-.32-1.41-.03-2.81-.05-4.22-.08-.32,0-.44-.41-.18-.59,3.66-2.47,7.31-4.94,10.97-7.42,1.86-1.27,3.72-2.54,5.59-3.81,1.31-.74,2.63-1.48,3.94-2.23.22-.12.49.03.49.28v14.04c0,.12-.07.23-.17.29-.35.2-.88.43-1.56.52-1.09.14-1.95-.19-2.41-.4-.11-.05-.18-.16-.18-.29-.04-2.09-.07-4.17-.11-6.26,0-.26-.29-.41-.51-.27l-6.7,4.43c-.09.06-.15.16-.15.28.02,1.67.04,3.35.07,5.02,0,.18.15.32.32.32h10.66c.14,0,.27.09.31.23.15.48.31,1.16.29,1.99-.01.71-.15,1.31-.29,1.75-.04.14-.17.23-.31.23-3.47.04-6.94.08-10.42.12-.18,0-.32.15-.32.33v5.39c0,.18.15.33.33.33,2.21-.02,4.43-.04,6.64-.07.17,0,.32-.14.32-.31.03-.81.06-1.61.09-2.42,0-.16.13-.3.29-.31.55-.06.78-.04,1.82-.09,1.06-.05,1.37-.2,1.63-.11.08.03.13.06.18.1.23.21.19.56.17,1.12,0,.29,0,.57,0,.86,0,.45,0,.9,0,1.36v2.22c0,1.43.13,2.04-.25,2.34Z"/>
    <path class="cls-4" d="M23.11,41.49c4.5.08,9,.16,13.5.25.37,0,1.14-.08,1.78-.62.25-.2.65-.62.99-1.85.16-.58.24-1.12.25-4.31,0-.15,0-.09,0-2.59v-1.48c.05-5.55.2-7.38.36-7.55,0,0,.3-.3.3-.3,1.55-.03,3.1-.06,4.65-.1.3,0,.41-.4.16-.56-3.06-2.03-6.12-4.06-9.18-6.09-.2-.13-.47.01-.47.26.02,6.54.05,13.09.07,19.63,0,.16-.12.3-.28.31l-1.27.09c-.18.01-.32-.13-.33-.31-.01-6.96-.02-13.93-.04-20.89,0-.09-.04-.18-.11-.23-1.07-.91-2.14-1.81-3.22-2.72-.2-.17-.5-.03-.5.23-.07,7.9-.13,15.8-.2,23.7,0,.17-.15.31-.32.3-.47-.02-.94-.05-1.4-.07-.16,0-.29-.14-.29-.31.04-8.33.08-16.66.12-24.99,0-.15-.12-.25-.12-.25-.47-.86-1.11-1.15-3.21-2.4-.51-.3-.53-.32-.61-.31-.77.17-.74,3.07-.62,9.37.08,4.19.1,4.49.12,6.04.09,5.32.04,9.46,0,11.95-.03,2.31-.08,4.29-.12,5.79Z"/>
  </g>
  <text class="cls-8" transform="translate(46.76 27.53) rotate(.04)"><tspan class="cls-5" x="0" y="0">E</tspan><tspan class="cls-14" x="15.25" y="0">A</tspan><tspan class="cls-12" x="32.63" y="0">S</tspan><tspan class="cls-15" x="46.55" y="0">T</tspan><tspan class="cls-5" x="61.99" y="0"> </tspan><tspan class="cls-16" x="67.49" y="0">W</tspan><tspan class="cls-11" x="89.82" y="0">A</tspan><tspan class="cls-2" x="105.46" y="0">Y</tspan></text>
  <text class="cls-9" transform="translate(47.66 39.98)"><tspan class="cls-10" x="0" y="0">C</tspan><tspan class="cls-7" x="9.65" y="0">O</tspan><tspan class="cls-17" x="20.89" y="0">N</tspan><tspan class="cls-6" x="30.96" y="0">S</tspan><tspan class="cls-7" x="38.98" y="0">T</tspan><tspan class="cls-13" x="48.2" y="0">R</tspan><tspan class="cls-7" x="57.3" y="0">U</tspan><tspan class="cls-13" x="67.22" y="0">C</tspan><tspan class="cls-7" x="77.01" y="0">TIO</tspan><tspan class="cls-17" x="102.34" y="0">N</tspan><tspan class="cls-1" x="112.41" y="0">S</tspan></text>
</svg>