<svg width="130" height="130" viewBox="0 0 130 130" fill="none" xmlns="http://www.w3.org/2000/svg">
<rect width="130" height="130" rx="65" fill="white"/>
<path d="M62.4141 99.2486C62.4141 99.2486 62.1645 99.4358 61.894 99.4982H29.6117C29.6117 99.4982 29.4661 99.5398 29.3621 99.4982C29.1957 99.4358 29.0917 99.2278 29.1125 98.9782V76.1601C29.1125 73.3312 29.1125 63.555 29.1125 60.6221C29.1125 60.2477 28.8213 59.9565 28.4469 59.9565C25.514 59.8941 22.602 59.8525 19.6691 59.7901C19.0035 59.7901 18.7539 58.9373 19.2947 58.5629C26.9077 53.4252 34.4998 48.2875 42.1128 43.1289C45.9817 40.4873 49.8506 37.8456 53.7403 35.204C56.4651 33.6647 59.2108 32.1255 61.9356 30.5655C62.3933 30.3159 62.9549 30.6279 62.9549 31.1479V60.3517C62.9549 60.6013 62.8093 60.8301 62.6013 60.9549C61.8732 61.3709 60.7708 61.8494 59.3564 62.0366C57.0891 62.3278 55.3003 61.6413 54.3435 61.2045C54.1147 61.1005 53.9691 60.8717 53.9691 60.6013C53.8859 56.254 53.8235 51.9275 53.7403 47.5802C53.7403 47.0394 53.1371 46.7274 52.6794 47.0186L38.7431 56.2332C38.5559 56.358 38.4311 56.566 38.4311 56.8156C38.4727 60.2893 38.5143 63.7838 38.5767 67.2575C38.5767 67.6319 38.8887 67.9231 39.2423 67.9231H61.4156C61.7068 67.9231 61.9772 68.1103 62.0604 68.4015C62.3725 69.3999 62.7053 70.8144 62.6637 72.5408C62.6429 74.0176 62.3517 75.2656 62.0604 76.1809C61.9772 76.4721 61.7068 76.6593 61.4156 76.6593C54.1979 76.7425 46.9801 76.8257 39.7416 76.9089C39.3671 76.9089 39.0759 77.2209 39.0759 77.5953V88.8067C39.0759 89.1812 39.3879 89.4932 39.7624 89.4932C44.3593 89.4516 48.977 89.41 53.5739 89.3476C53.9275 89.3476 54.2395 89.0564 54.2395 88.7027C54.3019 87.0179 54.3643 85.3539 54.4267 83.669C54.4267 83.3362 54.6971 83.045 55.0299 83.0242C56.1739 82.8994 56.6523 82.941 58.8156 82.837C61.0204 82.733 61.6652 82.421 62.2061 82.6082C62.3725 82.6706 62.4765 82.733 62.5805 82.8162C63.0589 83.253 62.9757 83.981 62.9341 85.1459C62.9341 85.7491 62.9341 86.3315 62.9341 86.9347C62.9341 87.8707 62.9341 88.8067 62.9341 89.7636V94.3813C62.9341 97.3557 63.2045 98.6246 62.4141 99.2486Z" fill="#454545"/>
<path d="M64.9718 98.9782C74.3321 99.1446 83.6923 99.3111 93.0525 99.4983C93.8221 99.4983 95.4237 99.3319 96.7549 98.2086C97.275 97.7926 98.107 96.919 98.8142 94.3605C99.147 93.1541 99.3134 92.0309 99.3342 85.3955C99.3342 85.0835 99.3342 85.2083 99.3342 80.0082V76.9298C99.4382 65.3855 99.7502 61.579 100.083 61.2254L100.707 60.6014C103.931 60.539 107.155 60.4766 110.379 60.3934C111.003 60.3934 111.232 59.5614 110.712 59.2286C104.347 55.0061 97.9822 50.7836 91.6172 46.5611C91.2012 46.2907 90.6396 46.5819 90.6396 47.1019C90.6812 60.7054 90.7436 74.3297 90.7852 87.9332C90.7852 88.266 90.5356 88.5572 90.2028 88.578L87.5611 88.7652C87.1867 88.786 86.8955 88.4948 86.8747 88.1204C86.8539 73.6433 86.8331 59.1454 86.7915 44.6682C86.7915 44.481 86.7083 44.2938 86.5627 44.1898C84.3371 42.297 82.1114 40.4249 79.865 38.5321C79.449 38.1785 78.825 38.4697 78.825 39.0105C78.6793 55.4429 78.5545 71.8752 78.4089 88.3076C78.4089 88.6612 78.0969 88.9524 77.7433 88.9316C76.7657 88.89 75.7881 88.8276 74.8313 88.786C74.4985 88.786 74.228 88.4948 74.228 88.1412C74.3113 70.8144 74.3945 53.4876 74.4777 36.1608C74.4777 35.8488 74.228 35.6408 74.228 35.6408C73.2504 33.852 71.9192 33.2488 67.5511 30.6487C66.4903 30.0247 66.4487 29.9831 66.2823 30.0039C64.6806 30.3575 64.743 36.3897 64.9926 49.4939C65.1591 58.2093 65.2006 58.8333 65.2423 62.0574C65.4295 73.1233 65.3255 81.7347 65.2423 86.914C65.1798 91.7189 65.0758 95.8374 64.9926 98.9574L64.9718 98.9782Z" fill="#FFCE00"/>
</svg>
